<svg width="1280" height="100" viewBox="0 0 1280 100" fill="none" xmlns="http://www.w3.org/2000/svg">
<mask id="mask0_1_3577" style="mask-type:alpha" maskUnits="userSpaceOnUse" x="0" y="0" width="1280" height="100">
<rect width="1280" height="100" fill="url(#paint0_linear_1_3577)"/>
</mask>
<g mask="url(#mask0_1_3577)">
</g>
<g clip-path="url(#clip0_1_3577)">
<g opacity="0.2" clip-path="url(#clip1_1_3577)">
<g clip-path="url(#clip2_1_3577)">
<g clip-path="url(#clip3_1_3577)">
<path d="M66.416 48.479C65.971 48.952 65.525 49.411 65.08 49.855C63.087 51.849 61.09 53.845 59.09 55.842L52.951 61.976C51.533 63.392 50.141 64.837 48.687 66.214C47.638 67.21 46.345 67.505 44.902 67.291C43.764 67.119 42.911 66.506 42.141 65.712C41.32 64.864 40.488 64.026 39.647 63.198C38.631 62.196 38.271 60.981 38.364 59.583C38.446 58.369 39.006 57.41 39.841 56.571C43.917 52.506 47.987 48.439 52.052 44.371C55.69 40.73 59.322 37.091 62.947 33.453C63.467 32.892 64.101 32.449 64.806 32.153C65.069 32.043 65.344 31.968 65.626 31.929C66.412 31.808 67.215 31.867 67.975 32.103C68.669 32.356 69.3 32.758 69.821 33.281C73.235 36.692 76.642 40.104 80.04 43.516C83.856 47.344 87.671 51.173 91.484 55.003C92.132 55.652 92.8 56.284 93.408 56.968C94.31 57.969 94.711 59.324 94.497 60.653C94.355 61.707 93.849 62.679 93.065 63.401C92.119 64.326 91.211 65.294 90.238 66.191C89.16 67.184 87.866 67.507 86.412 67.287C85.254 67.108 84.408 66.457 83.618 65.66C80.944 62.972 78.262 60.291 75.573 57.617L67.029 49.073C66.841 48.887 66.639 48.709 66.416 48.479Z" fill="white"/>
<path d="M66.441 67.371H60.112C59.84 67.374 59.573 67.296 59.344 67.148C58.836 66.78 58.819 66.171 59.264 65.718C60.204 64.763 61.152 63.818 62.099 62.87C63.302 61.662 64.508 60.458 65.715 59.257C66.189 58.789 66.65 58.768 67.138 59.232C67.986 60.044 68.812 60.88 69.643 61.71C70.921 62.986 72.196 64.265 73.468 65.546C73.644 65.708 73.783 65.904 73.876 66.124C74.134 66.867 73.451 67.387 72.93 67.387H66.441V67.371ZM104.712 66.786V40.427H109.429L109.575 43.239C110.22 42.204 111.129 41.36 112.208 40.793C113.305 40.184 114.512 39.88 115.828 39.88C117.096 39.88 118.266 40.135 119.339 40.647C120.412 41.158 121.35 41.876 122.155 42.8C122.959 43.701 123.581 44.76 124.02 45.977C124.483 47.193 124.714 48.52 124.714 49.956C124.714 51.416 124.483 52.767 124.02 54.008C123.556 55.249 122.91 56.345 122.082 57.294C121.262 58.211 120.268 58.956 119.156 59.484C118.035 59.995 116.828 60.251 115.536 60.251C114.341 60.251 113.256 60.02 112.281 59.557C111.322 59.083 110.484 58.396 109.831 57.549V66.786H104.712ZM114.622 55.651C115.548 55.651 116.377 55.408 117.108 54.921C117.84 54.434 118.412 53.777 118.827 52.949C119.266 52.098 119.485 51.136 119.485 50.065C119.485 48.994 119.266 48.045 118.827 47.218C118.412 46.366 117.84 45.697 117.108 45.21C116.377 44.723 115.548 44.48 114.622 44.48C113.695 44.48 112.866 44.723 112.135 45.21C111.404 45.697 110.818 46.366 110.38 47.218C109.965 48.045 109.758 48.994 109.758 50.065C109.758 51.136 109.965 52.098 110.38 52.949C110.818 53.777 111.404 54.434 112.135 54.921C112.866 55.408 113.695 55.651 114.622 55.651ZM136.77 60.251C135.015 60.251 133.479 59.886 132.163 59.156C130.871 58.401 129.859 57.342 129.128 55.979C128.421 54.592 128.067 52.962 128.067 51.088V40.427H133.187V51.197C133.187 52.584 133.516 53.68 134.174 54.483C134.832 55.262 135.722 55.651 136.843 55.651C137.965 55.651 138.855 55.262 139.513 54.483C140.171 53.68 140.5 52.584 140.5 51.197V40.427H145.62V51.088C145.62 52.475 145.413 53.728 144.998 54.848C144.584 55.967 143.987 56.929 143.206 57.732C142.426 58.535 141.488 59.156 140.391 59.594C139.318 60.032 138.111 60.251 136.77 60.251ZM156.656 60.251C155.291 60.251 154.047 60.032 152.926 59.594C151.829 59.156 150.89 58.535 150.11 57.732C149.354 56.929 148.83 55.979 148.538 54.884L153.145 53.899C153.389 54.653 153.828 55.249 154.462 55.687C155.096 56.126 155.851 56.345 156.729 56.345C157.558 56.345 158.241 56.162 158.777 55.797C159.313 55.432 159.581 54.933 159.581 54.3C159.581 53.765 159.338 53.327 158.85 52.986C158.387 52.621 157.607 52.341 156.51 52.146L155.486 51.964C153.389 51.599 151.792 50.917 150.695 49.919C149.623 48.921 149.086 47.656 149.086 46.123C149.086 44.906 149.403 43.835 150.037 42.91C150.671 41.961 151.549 41.218 152.67 40.683C153.791 40.148 155.084 39.88 156.546 39.88C157.838 39.88 159.009 40.099 160.057 40.537C161.129 40.951 162.019 41.547 162.726 42.326C163.433 43.105 163.921 44.042 164.189 45.137L159.618 46.086C159.374 45.356 158.972 44.784 158.411 44.37C157.875 43.957 157.241 43.75 156.51 43.75C155.754 43.75 155.132 43.932 154.645 44.297C154.157 44.662 153.913 45.125 153.913 45.685C153.913 46.171 154.145 46.585 154.608 46.926C155.096 47.242 155.912 47.498 157.058 47.692L158.082 47.875C160.154 48.24 161.739 48.934 162.836 49.956C163.933 50.954 164.482 52.231 164.482 53.789C164.482 54.738 164.287 55.602 163.896 56.381C163.531 57.16 162.994 57.841 162.287 58.425C161.58 59.01 160.752 59.46 159.801 59.776C158.85 60.093 157.802 60.251 156.656 60.251ZM167.671 59.703V32.469H172.79V42.545C173.375 41.717 174.131 41.072 175.057 40.61C175.984 40.123 177.044 39.88 178.239 39.88C179.653 39.88 180.884 40.221 181.932 40.902C183.005 41.559 183.834 42.508 184.419 43.75C185.004 44.991 185.297 46.451 185.297 48.13V59.703H180.177V48.788C180.177 47.449 179.872 46.402 179.263 45.648C178.653 44.869 177.812 44.48 176.74 44.48C175.96 44.48 175.277 44.662 174.692 45.027C174.107 45.368 173.644 45.855 173.302 46.488C172.961 47.12 172.79 47.838 172.79 48.642V59.703H167.671ZM198.086 60.251C196.331 60.251 194.795 59.886 193.479 59.156C192.187 58.401 191.175 57.342 190.444 55.979C189.737 54.592 189.383 52.962 189.383 51.088V40.427H194.503V51.197C194.503 52.584 194.832 53.68 195.49 54.483C196.148 55.262 197.038 55.651 198.16 55.651C199.281 55.651 200.171 55.262 200.829 54.483C201.487 53.68 201.816 52.584 201.816 51.197V40.427H206.936V51.088C206.936 52.475 206.729 53.728 206.314 54.848C205.9 55.967 205.303 56.929 204.522 57.732C203.742 58.535 202.804 59.156 201.707 59.594C200.634 60.032 199.427 60.251 198.086 60.251ZM211.024 66.786V40.427H215.741L215.888 43.239C216.532 42.204 217.441 41.36 218.521 40.793C219.618 40.184 220.824 39.88 222.141 39.88C223.409 39.88 224.579 40.135 225.651 40.647C226.724 41.158 227.663 41.876 228.467 42.8C229.272 43.701 229.893 44.76 230.332 45.977C230.795 47.193 231.027 48.52 231.027 49.956C231.027 51.416 230.795 52.767 230.332 54.008C229.869 55.249 229.223 56.345 228.394 57.294C227.575 58.211 226.58 58.956 225.469 59.484C224.347 59.995 223.14 60.251 221.848 60.251C220.654 60.251 219.569 60.02 218.594 59.557C217.634 59.083 216.796 58.396 216.144 57.549V66.786H211.024ZM220.934 55.651C221.86 55.651 222.689 55.408 223.421 54.921C224.152 54.434 224.725 53.777 225.139 52.949C225.578 52.098 225.798 51.136 225.798 50.065C225.798 48.994 225.578 48.045 225.139 47.218C224.725 46.366 224.152 45.697 223.421 45.21C222.689 44.723 221.86 44.48 220.934 44.48C220.008 44.48 219.179 44.723 218.447 45.21C217.716 45.697 217.131 46.366 216.692 47.218C216.278 48.045 216.07 48.994 216.07 50.065C216.07 51.136 216.278 52.098 216.692 52.949C217.131 53.777 217.716 54.434 218.447 54.921C219.179 55.408 220.008 55.651 220.934 55.651Z" fill="white"/>
</g>
</g>
</g>
<g opacity="0.2" clip-path="url(#clip4_1_3577)">
<g clip-path="url(#clip5_1_3577)">
<path d="M381.225 42.7159C378.856 42.7159 377.139 43.3789 376.073 44.6999C375.03 46.0009 374.508 47.7899 374.508 50.0659C374.508 51.1719 374.639 52.1799 374.9 53.0909C375.161 53.9799 375.552 54.7499 376.073 55.3999C376.595 56.0499 377.247 56.5599 378.03 56.9299C378.812 57.2749 379.725 57.4489 380.768 57.4489C381.334 57.4489 381.812 57.4379 382.203 57.4159C382.616 57.3949 382.975 57.3509 383.278 57.2859V49.4479H388.365V60.6039C387.756 60.8419 386.778 61.0909 385.431 61.3519C384.083 61.6339 382.42 61.7739 380.442 61.7739C378.747 61.7739 377.204 61.5139 375.813 60.9939C374.486 60.5009 373.284 59.7239 372.291 58.7169C371.313 57.7199 370.553 56.4949 370.009 55.0429C369.488 53.5899 369.227 51.9309 369.227 50.0659C369.227 48.1799 369.52 46.5099 370.107 45.0579C370.694 43.6049 371.498 42.3799 372.52 41.3839C373.536 40.3669 374.759 39.5799 376.106 39.0739C377.525 38.5479 379.027 38.2839 380.54 38.2929C381.605 38.2929 382.562 38.3689 383.409 38.5219C384.279 38.6509 385.018 38.8129 385.626 39.0089C386.257 39.1819 386.768 39.3659 387.159 39.5629C387.572 39.7569 387.865 39.9079 388.039 40.0169L386.572 44.0819C385.803 43.6849 384.994 43.3679 384.159 43.1389C383.209 42.8489 382.219 42.7059 381.225 42.7159ZM399.325 57.9689C399.803 57.9689 400.259 57.9579 400.694 57.9369C401.043 57.9239 401.392 57.8919 401.737 57.8399V54.1639C401.446 54.1059 401.152 54.0629 400.856 54.0339C400.499 53.9929 400.14 53.9709 399.781 53.9689C399.325 53.9689 398.89 54.0019 398.477 54.0669C398.115 54.1019 397.761 54.2009 397.434 54.3589C397.129 54.5109 396.89 54.7169 396.716 54.9769C396.543 55.2369 396.456 55.5629 396.456 55.9529C396.456 56.7119 396.706 57.2429 397.204 57.5459C397.727 57.8279 398.434 57.9689 399.325 57.9689ZM398.934 43.7889C400.368 43.7889 401.564 43.9519 402.52 44.2769C403.476 44.6019 404.237 45.0689 404.802 45.6759C405.397 46.2959 405.823 47.0569 406.041 47.8869C406.28 48.7539 406.4 49.7189 406.4 50.7819V60.8639C405.704 61.0159 404.737 61.1889 403.498 61.3839C402.259 61.6009 400.759 61.7089 398.999 61.7089C397.89 61.7089 396.88 61.6129 395.967 61.4169C395.075 61.2219 394.304 60.9069 393.652 60.4739C393.008 60.0279 392.491 59.4219 392.152 58.7169C391.804 58.0019 391.63 57.1239 391.63 56.0829C391.63 55.0859 391.826 54.2399 392.217 53.5459C392.615 52.8679 393.175 52.2979 393.847 51.8879C394.561 51.4599 395.345 51.1629 396.162 51.0089C397.05 50.8119 397.957 50.7139 398.867 50.7169C399.499 50.7169 400.053 50.7489 400.531 50.8139C401.031 50.8579 401.433 50.9229 401.737 51.0089V50.5539C401.737 49.7299 401.488 49.0689 400.988 48.5699C400.488 48.0719 399.618 47.8229 398.379 47.8229C397.553 47.8229 396.737 47.8869 395.934 48.0169C395.223 48.1039 394.523 48.2669 393.847 48.5049L393.228 44.6019C393.51 44.5159 393.858 44.4289 394.271 44.3419C394.706 44.2339 395.173 44.1469 395.672 44.0819C396.173 43.9949 396.695 43.9299 397.238 43.8869C397.803 43.8219 398.368 43.7909 398.934 43.7909V43.7889ZM410.63 39.9839L415.488 39.2039V44.2449H421.324V48.2769H415.487V54.2939C415.487 55.3129 415.66 56.1259 416.008 56.7329C416.378 57.3399 417.106 57.6439 418.193 57.6439C418.714 57.6439 419.247 57.6009 419.79 57.5139C420.312 57.4179 420.825 57.2769 421.323 57.0919L422.007 60.8639C421.42 61.1019 420.768 61.3089 420.051 61.4819C419.334 61.6549 418.454 61.7419 417.41 61.7419C416.084 61.7419 414.987 61.5679 414.117 61.2219C413.248 60.8529 412.552 60.3539 412.031 59.7249C411.509 59.0749 411.139 58.2939 410.922 57.3839C410.718 56.3889 410.62 55.3759 410.629 54.3599V39.9829L410.63 39.9839ZM423.827 52.9279C423.827 51.4109 424.057 50.0879 424.512 48.9599C424.99 47.8109 425.611 46.8569 426.371 46.0979C427.114 45.3519 428.001 44.7659 428.98 44.3759C429.955 43.9899 430.994 43.7909 432.043 43.7889C434.478 43.7889 436.401 44.5369 437.814 46.0329C439.227 47.5079 439.933 49.6869 439.933 52.5699C439.933 52.8519 439.923 53.1669 439.901 53.5139C439.879 53.8389 439.857 54.1319 439.836 54.3929H428.816C428.924 55.3889 429.392 56.1809 430.217 56.7659C431.043 57.3509 432.152 57.6449 433.543 57.6449C434.434 57.6449 435.304 57.5679 436.151 57.4159C437.021 57.2429 437.727 57.0369 438.271 56.7979L438.923 60.7339C438.586 60.8919 438.237 61.0229 437.879 61.1239C437.445 61.2539 436.956 61.3619 436.412 61.4489C435.891 61.5579 435.325 61.6439 434.717 61.7089C434.108 61.7739 433.5 61.8069 432.891 61.8069C431.348 61.8069 430 61.5789 428.848 61.1239C427.718 60.6689 426.772 60.0519 426.012 59.2699C425.264 58.4539 424.698 57.4899 424.349 56.4409C423.993 55.3039 423.817 54.1189 423.827 52.9279ZM435.238 51.0739C435.217 50.6649 435.14 50.2599 435.01 49.8709C434.905 49.4879 434.716 49.1319 434.456 48.8299C434.2 48.5139 433.877 48.2589 433.51 48.0839C433.141 47.8869 432.674 47.7899 432.11 47.7899C431.566 47.7899 431.098 47.8869 430.707 48.0819C430.331 48.2439 429.996 48.4889 429.728 48.7979C429.459 49.1159 429.249 49.4789 429.109 49.8709C428.978 50.2639 428.88 50.6669 428.816 51.0759H435.238V51.0739Z" fill="white"/>
</g>
</g>
<g opacity="0.2" clip-path="url(#clip6_1_3577)">
<g clip-path="url(#clip7_1_3577)">
<g clip-path="url(#clip8_1_3577)">
<path d="M564.726 64.121V53.636H562.747V51.53H564.726V50.478C564.726 48.98 565.179 47.806 566.086 46.996C566.993 46.186 568.271 45.781 569.92 45.781C570.497 45.781 571.074 45.822 571.61 45.943C572.187 46.065 572.805 46.227 573.547 46.47L573.094 48.818C572.599 48.656 572.104 48.534 571.651 48.413C571.156 48.291 570.662 48.251 570.126 48.251C569.26 48.251 568.642 48.453 568.23 48.818C567.817 49.182 567.611 49.749 567.611 50.518V51.571H570.126V53.676H567.611V64.162H564.726V64.121ZM574.907 64.121H572.022V51.53H574.907V64.121ZM580.761 51.53L580.926 53.352C581.338 52.704 581.874 52.219 582.492 51.854C583.111 51.49 583.853 51.328 584.636 51.328C585.955 51.328 587.027 51.733 587.769 52.502C588.511 53.312 588.882 54.526 588.882 56.227V64.121H585.996V56.227C585.996 55.296 585.79 54.607 585.378 54.202C584.966 53.798 584.388 53.595 583.564 53.595C582.987 53.595 582.492 53.717 582.039 53.96C581.585 54.202 581.214 54.526 580.926 54.972V64.081H578.04V51.53H580.761ZM603.227 58.251C603.227 60.073 602.773 61.571 601.908 62.704C601.042 63.838 599.805 64.364 598.198 64.364C597.414 64.364 596.714 64.202 596.095 63.879C595.518 63.555 595.024 63.109 594.611 62.502L594.323 64.121H591.891V45.984H594.776V52.988C595.188 52.462 595.642 52.057 596.219 51.773C596.755 51.49 597.414 51.328 598.156 51.328C599.764 51.328 601.001 51.935 601.866 53.15C602.732 54.364 603.185 55.984 603.185 58.008V58.251H603.227ZM600.341 58.008C600.341 56.713 600.094 55.66 599.64 54.85C599.187 54.04 598.445 53.636 597.456 53.636C596.796 53.636 596.26 53.757 595.848 54.04C595.436 54.324 595.065 54.688 594.817 55.215V60.478C595.065 60.964 595.395 61.368 595.848 61.652C596.301 61.935 596.837 62.057 597.497 62.057C598.486 62.057 599.228 61.733 599.682 61.045C600.135 60.356 600.341 59.425 600.341 58.251V58.008ZM605.205 57.725C605.205 55.862 605.741 54.324 606.772 53.109C607.843 51.895 609.286 51.287 611.1 51.287C612.955 51.287 614.398 51.895 615.428 53.109C616.5 54.283 616.995 55.822 616.995 57.725V57.968C616.995 59.87 616.459 61.409 615.428 62.583C614.398 63.757 612.955 64.364 611.1 64.364C609.245 64.364 607.802 63.757 606.772 62.583C605.741 61.409 605.205 59.87 605.205 57.968V57.725ZM608.091 57.968C608.091 59.182 608.338 60.194 608.833 60.964C609.327 61.733 610.069 62.097 611.1 62.097C612.089 62.097 612.872 61.733 613.367 60.964C613.862 60.194 614.109 59.182 614.109 57.968V57.725C614.109 56.51 613.862 55.538 613.367 54.769C612.872 54 612.089 53.595 611.1 53.595C610.111 53.595 609.327 54 608.833 54.769C608.338 55.538 608.091 56.551 608.091 57.725V57.968ZM623.796 55.862L626.187 51.53H629.485L625.445 57.765L629.608 64.121H626.311L623.837 59.709L621.364 64.121H618.066L622.23 57.765L618.19 51.53H621.488L623.796 55.862ZM532.037 41.287C533.274 41.287 534.304 42.3 534.304 43.514C534.304 44.729 533.274 45.741 532.037 45.741C530.8 45.741 529.77 44.729 529.77 43.514C529.77 42.3 530.8 41.287 532.037 41.287ZM543.991 41.287C545.228 41.287 546.258 42.3 546.258 43.514C546.258 44.729 545.228 45.741 543.991 45.741C542.755 45.741 541.724 44.729 541.724 43.514C541.724 42.3 542.755 41.287 543.991 41.287ZM550.381 34H525.648C523.834 34 522.35 35.457 522.35 37.239V61.53C522.35 63.312 523.834 64.769 525.648 64.769H550.381C552.194 64.769 553.678 63.312 553.678 61.53V37.239C553.678 35.457 552.194 34 550.381 34ZM540.694 58.575L540.116 59.911C540.075 59.992 539.952 60.073 539.869 60.032L536.036 58.696C535.912 58.656 535.871 58.534 535.912 58.453C535.953 58.372 536.036 58.332 536.118 58.332H540.529C540.652 58.332 540.735 58.413 540.735 58.534C540.735 58.534 540.694 58.534 540.694 58.575ZM552.03 50.68C547.371 53.393 542.672 54.729 538.014 54.729C533.356 54.729 528.657 53.393 523.999 50.68V37.239C523.999 36.348 524.741 35.619 525.648 35.619H550.381C551.288 35.619 552.03 36.348 552.03 37.239V50.68Z" fill="white"/>
</g>
</g>
</g>
<g opacity="0.2" clip-path="url(#clip9_1_3577)">
<g clip-path="url(#clip10_1_3577)">
<g clip-path="url(#clip11_1_3577)">
<path d="M808.273 59.538C806.273 58.308 804.735 56.769 803.503 54.769C802.273 52.769 801.811 50.462 801.811 48C801.811 45.539 802.427 43.23 803.504 41.23C804.734 39.23 806.273 37.538 808.273 36.462C810.273 35.231 812.427 34.769 814.888 34.769C816.735 34.769 818.581 35.077 820.119 35.692C821.811 36.308 823.042 37.231 824.119 38.462L821.965 40.615C821.196 39.692 820.119 38.923 818.888 38.308C817.658 37.846 816.273 37.538 814.888 37.538C813.042 37.538 811.504 38 809.965 38.769C808.446 39.673 807.177 40.942 806.273 42.461C805.35 44 804.888 45.846 804.888 47.846C804.888 49.846 805.35 51.692 806.273 53.231C807.177 54.75 808.446 56.019 809.965 56.923C811.504 57.846 813.196 58.153 814.888 58.153C816.581 58.153 817.965 57.846 819.196 57.385C820.273 56.923 821.35 56.154 822.119 55.231C822.734 54.615 823.196 53.692 823.658 52.769C823.965 51.846 824.273 50.769 824.273 49.692H814.888V46.923H827.042C827.196 47.538 827.196 48.153 827.196 48.769C827.196 50.308 826.888 51.846 826.427 53.385C825.998 54.843 825.204 56.167 824.119 57.231C821.658 59.692 818.581 61.077 814.734 61.077C812.427 61.231 810.273 60.769 808.273 59.538ZM833.965 60C832.581 59.23 831.504 58 830.735 56.615C829.965 55.231 829.658 53.539 829.658 51.846C829.658 50.154 829.965 48.462 830.735 47.076C831.504 45.692 832.581 44.461 833.965 43.692C835.35 42.923 836.888 42.462 838.581 42.462C840.273 42.462 841.811 42.923 843.196 43.692C844.581 44.462 845.658 45.692 846.427 47.077C847.196 48.461 847.504 50.154 847.504 51.847C847.504 53.538 847.196 55.231 846.427 56.615C845.658 58 844.581 59.231 843.196 60C841.811 60.77 840.273 61.23 838.581 61.23C836.888 61.23 835.196 60.923 833.965 60ZM841.504 57.692C842.427 57.077 843.196 56.308 843.658 55.385C844.273 54.308 844.427 53.231 844.427 51.846C844.427 50.462 844.119 49.385 843.658 48.308C843.042 47.231 842.427 46.462 841.504 46C840.581 45.385 839.658 45.23 838.581 45.23C837.504 45.23 836.581 45.539 835.658 46C834.735 46.615 833.965 47.385 833.504 48.308C832.888 49.385 832.735 50.462 832.735 51.846C832.735 53.231 833.042 54.308 833.504 55.385C834.119 56.461 834.735 57.231 835.658 57.692C836.581 58.308 837.504 58.462 838.581 58.462C839.658 58.615 840.581 58.308 841.504 57.692ZM853.965 60C852.581 59.23 851.504 58 850.735 56.615C849.965 55.231 849.658 53.539 849.658 51.846C849.658 50.154 849.965 48.462 850.735 47.076C851.504 45.692 852.581 44.461 853.965 43.692C855.35 42.923 856.888 42.462 858.581 42.462C860.273 42.462 861.811 42.923 863.196 43.692C864.581 44.462 865.658 45.692 866.427 47.077C867.196 48.461 867.504 50.154 867.504 51.847C867.504 53.538 867.196 55.231 866.427 56.615C865.658 58 864.581 59.231 863.196 60C861.811 60.77 860.273 61.23 858.581 61.23C856.888 61.23 855.35 60.923 853.965 60ZM861.658 57.692C862.581 57.077 863.35 56.308 863.811 55.385C864.427 54.308 864.581 53.231 864.581 51.846C864.581 50.462 864.273 49.385 863.811 48.308C863.196 47.231 862.581 46.462 861.658 46C860.735 45.385 859.811 45.23 858.735 45.23C857.658 45.23 856.735 45.539 855.811 46C854.888 46.615 854.119 47.385 853.658 48.308C853.042 49.385 852.888 50.462 852.888 51.846C852.888 53.231 853.196 54.308 853.658 55.385C854.273 56.461 854.888 57.231 855.811 57.692C856.735 58.308 857.658 58.462 858.735 58.462C859.658 58.615 860.735 58.308 861.658 57.692ZM873.196 67.385C871.811 66.308 870.888 65.231 870.427 63.846L873.196 62.616C873.504 63.692 874.119 64.462 875.042 65.076C875.965 65.692 877.042 66 878.273 66C880.119 66 881.504 65.385 882.581 64.308C883.658 63.231 884.119 61.692 884.119 59.692V57.846H883.965C883.342 58.802 882.498 59.593 881.504 60.154C880.424 60.763 879.205 61.081 877.965 61.077C876.427 61.077 875.042 60.615 873.811 59.847C872.488 59.03 871.421 57.857 870.735 56.461C869.965 55.077 869.658 53.385 869.658 51.692C869.658 49.846 869.965 48.308 870.735 46.923C871.504 45.538 872.581 44.308 873.811 43.538C875.042 42.769 876.427 42.308 877.965 42.308C879.35 42.308 880.581 42.615 881.504 43.231C882.498 43.792 883.342 44.583 883.965 45.539H884.119V42.923H887.042V59.846C887.042 61.846 886.735 63.385 885.965 64.769C885.196 66.154 884.119 67.077 882.888 67.846C881.504 68.462 880.119 68.769 878.427 68.769C876.273 68.923 874.581 68.462 873.196 67.385ZM881.35 57.692C882.273 57.231 882.888 56.462 883.504 55.385C883.965 54.461 884.273 53.231 884.273 51.846C884.273 50.462 883.965 49.385 883.504 48.308C883.086 47.305 882.322 46.486 881.35 46C880.427 45.538 879.504 45.23 878.427 45.23C877.35 45.23 876.427 45.538 875.504 46C874.581 46.462 873.965 47.23 873.35 48.308C872.888 49.231 872.581 50.462 872.581 51.846C872.581 53.231 872.888 54.308 873.35 55.385C873.812 56.308 874.581 57.077 875.504 57.692C876.427 58.154 877.35 58.462 878.427 58.462C879.504 58.615 880.427 58.308 881.35 57.692ZM893.812 35.385H890.735V60.769H893.812V35.385ZM900.734 60C899.35 59.23 898.427 58.154 897.657 56.615C896.888 55.231 896.58 53.539 896.58 51.846C896.58 50.154 896.888 48.616 897.657 47.076C898.427 45.692 899.35 44.461 900.734 43.692C902.119 42.923 903.504 42.462 905.196 42.462C906.888 42.462 908.427 42.769 909.657 43.538C910.888 44.308 911.965 45.385 912.581 46.769C913.196 48.154 913.657 49.692 913.657 51.539V52.308H899.657C899.657 53.692 899.965 54.769 900.58 55.692C901.196 56.615 901.965 57.231 902.734 57.692C903.657 58.154 904.58 58.308 905.504 58.308C907.657 58.308 909.504 57.231 910.58 55.077L913.196 56.307C912.427 57.692 911.35 58.923 910.119 59.692C908.734 60.615 907.196 60.923 905.35 60.923C903.657 61.231 902.119 60.923 900.734 60ZM910.427 50C910.427 49.23 910.119 48.615 909.811 47.846C909.504 47.076 908.888 46.462 908.119 46C907.35 45.539 906.273 45.23 905.042 45.23C903.657 45.23 902.58 45.692 901.657 46.462C900.734 47.385 900.119 48.462 899.811 49.846H910.427V50ZM925.042 35.385H932.735C935.35 35.385 937.658 36 939.504 36.923C941.504 38 942.889 39.538 943.965 41.385C945.042 43.231 945.504 45.539 945.504 48C945.504 50.462 945.042 52.615 943.965 54.615C942.889 56.462 941.504 58 939.504 59.077C937.504 60.154 935.35 60.615 932.735 60.615H925.042V35.385ZM932.735 57.846C935.658 57.846 938.119 56.923 939.812 55.231C941.504 53.538 942.427 51.077 942.427 48C942.427 44.923 941.504 42.461 939.812 40.77C938.119 39.077 935.658 38.154 932.735 38.154H928.119V57.846H932.735ZM952.427 60C951.042 59.23 950.119 58.154 949.35 56.615C948.581 55.231 948.273 53.539 948.273 51.846C948.273 50.154 948.581 48.616 949.35 47.076C950.119 45.692 951.042 44.461 952.427 43.692C953.811 42.923 955.196 42.462 956.888 42.462C958.581 42.462 960.119 42.769 961.35 43.538C962.581 44.308 963.657 45.385 964.273 46.769C964.888 48.154 965.35 49.692 965.35 51.539V52.308H951.35C951.35 53.692 951.657 54.769 952.273 55.692C952.888 56.615 953.657 57.231 954.427 57.692C955.35 58.154 956.273 58.308 957.196 58.308C959.35 58.308 961.196 57.231 962.273 55.077L964.888 56.307C964.119 57.692 963.042 58.923 961.811 59.692C960.427 60.615 958.888 60.923 957.042 60.923C955.35 61.231 953.811 60.923 952.427 60ZM962.119 50C962.119 49.23 961.811 48.615 961.504 47.846C961.196 47.076 960.581 46.462 959.811 46C959.042 45.539 957.965 45.23 956.734 45.23C955.35 45.23 954.273 45.692 953.35 46.462C952.427 47.385 951.811 48.462 951.504 49.846H962.119V50ZM965.965 43.077H969.196L974.581 57.231H974.734L980.119 43.077H983.35L976.119 60.769H973.042L965.965 43.077ZM988.889 60C987.504 59.23 986.581 58.154 985.812 56.615C985.042 55.231 984.735 53.539 984.735 51.846C984.735 50.154 985.042 48.616 985.812 47.076C986.581 45.692 987.504 44.461 988.889 43.692C990.273 42.923 991.658 42.462 993.35 42.462C995.042 42.462 996.581 42.769 997.812 43.538C999.042 44.308 1000.12 45.385 1000.73 46.769C1001.35 48.154 1001.81 49.692 1001.81 51.539V52.308H987.658C987.658 53.692 987.966 54.769 988.581 55.692C989.196 56.615 989.966 57.231 990.735 57.692C991.658 58.154 992.581 58.308 993.504 58.308C995.658 58.308 997.504 57.231 998.581 55.077L1001.2 56.307C1000.43 57.692 999.35 58.923 998.119 59.692C996.735 60.615 995.196 60.923 993.35 60.923C991.658 61.231 990.119 60.923 988.889 60ZM998.427 50C998.427 49.23 998.119 48.615 997.812 47.846C997.504 47.076 996.889 46.462 996.119 46C995.35 45.539 994.273 45.23 993.042 45.23C991.658 45.23 990.581 45.692 989.658 46.462C988.735 47.385 988.119 48.462 987.812 49.846H998.427V50ZM1007.81 35.385H1004.73V60.769H1007.81V35.385ZM1014.89 60C1013.5 59.23 1012.43 58 1011.66 56.615C1010.89 55.231 1010.58 53.539 1010.58 51.846C1010.58 50.154 1010.89 48.462 1011.66 47.076C1012.43 45.692 1013.5 44.461 1014.89 43.692C1016.27 42.923 1017.81 42.462 1019.5 42.462C1021.2 42.462 1022.73 42.923 1024.12 43.692C1025.5 44.462 1026.58 45.692 1027.35 47.077C1028.12 48.461 1028.43 50.154 1028.43 51.847C1028.43 53.538 1028.12 55.231 1027.35 56.615C1026.58 58 1025.5 59.231 1024.12 60C1022.73 60.77 1021.2 61.23 1019.5 61.23C1017.81 61.23 1016.27 60.923 1014.89 60ZM1022.58 57.692C1023.5 57.077 1024.27 56.308 1024.73 55.385C1025.35 54.308 1025.5 53.231 1025.5 51.846C1025.5 50.462 1025.2 49.385 1024.73 48.308C1024.12 47.231 1023.5 46.462 1022.58 46C1021.66 45.385 1020.73 45.23 1019.66 45.23C1018.58 45.23 1017.66 45.539 1016.73 46C1015.81 46.615 1015.04 47.385 1014.58 48.308C1013.96 49.385 1013.81 50.462 1013.81 51.846C1013.81 53.231 1014.12 54.308 1014.58 55.385C1015.2 56.461 1015.81 57.231 1016.73 57.692C1017.66 58.308 1018.58 58.462 1019.66 58.462C1020.58 58.615 1021.66 58.308 1022.58 57.692ZM1031.35 43.077H1034.27V45.692H1034.43C1035.05 44.737 1035.89 43.946 1036.89 43.385C1037.96 42.769 1039.2 42.461 1040.58 42.461C1042.12 42.461 1043.5 42.923 1044.73 43.692C1045.96 44.462 1047.04 45.692 1047.81 47.077C1048.58 48.461 1048.89 50.154 1048.89 51.847C1048.89 53.692 1048.58 55.231 1047.81 56.615C1047.04 58 1045.96 59.077 1044.73 60C1043.5 60.77 1042.12 61.23 1040.58 61.23C1039.2 61.23 1037.96 60.923 1036.89 60.308C1035.89 59.747 1035.05 58.955 1034.43 58H1034.27L1034.43 60.462V68.308H1031.35V43.077ZM1042.89 57.692C1043.81 57.077 1044.43 56.308 1045.04 55.385C1045.5 54.308 1045.81 53.231 1045.81 51.846C1045.81 50.462 1045.5 49.385 1045.04 48.308C1044.62 47.305 1043.86 46.485 1042.89 46C1041.96 45.385 1041.04 45.23 1039.96 45.23C1038.89 45.23 1037.96 45.539 1037.04 46C1036.12 46.462 1035.5 47.23 1034.89 48.308C1034.43 49.385 1034.12 50.462 1034.12 51.846C1034.12 53.231 1034.43 54.308 1034.89 55.385C1035.31 56.388 1036.07 57.206 1037.04 57.692C1037.96 58.154 1038.89 58.462 1039.96 58.462C1041.04 58.615 1041.96 58.308 1042.89 57.692ZM1055.81 60C1054.43 59.23 1053.5 58.154 1052.73 56.615C1051.96 55.231 1051.66 53.539 1051.66 51.846C1051.66 50.154 1051.96 48.616 1052.73 47.076C1053.5 45.692 1054.43 44.461 1055.81 43.692C1057.2 42.923 1058.58 42.462 1060.27 42.462C1061.96 42.462 1063.5 42.769 1064.73 43.538C1065.96 44.308 1067.04 45.385 1067.66 46.769C1068.27 48.154 1068.73 49.692 1068.73 51.539V52.308H1054.73C1054.73 53.692 1055.04 54.769 1055.66 55.692C1056.27 56.615 1057.04 57.231 1057.81 57.692C1058.73 58.154 1059.66 58.308 1060.58 58.308C1062.73 58.308 1064.58 57.231 1065.66 55.077L1068.27 56.307C1067.5 57.692 1066.43 58.923 1065.2 59.692C1063.81 60.615 1062.27 60.923 1060.43 60.923C1058.73 61.231 1057.2 60.923 1055.81 60ZM1065.5 50C1065.5 49.23 1065.2 48.615 1064.89 47.846C1064.58 47.076 1063.96 46.462 1063.2 46C1062.43 45.539 1061.35 45.23 1060.12 45.23C1058.73 45.23 1057.66 45.692 1056.73 46.462C1055.81 47.385 1055.2 48.462 1054.89 49.846H1065.5V50ZM1071.66 43.077H1074.58V46H1074.73C1075.04 45.077 1075.81 44.154 1076.73 43.539C1077.81 42.923 1078.73 42.615 1079.81 42.615C1080.58 42.615 1081.2 42.769 1081.81 42.923V46.153C1081.2 45.846 1080.27 45.693 1079.35 45.693C1078.58 45.693 1077.81 46 1077.04 46.462C1076.27 46.923 1075.81 47.538 1075.35 48.462C1074.89 49.231 1074.73 50.154 1074.73 51.077V60.923H1071.66V43.077ZM1097.35 59.538C1095.35 58.308 1093.81 56.769 1092.58 54.769C1091.35 52.769 1090.89 50.462 1090.89 48C1090.89 45.539 1091.5 43.23 1092.58 41.23C1093.81 39.23 1095.35 37.538 1097.35 36.462C1099.35 35.231 1101.5 34.769 1103.97 34.769C1105.81 34.769 1107.66 35.077 1109.2 35.692C1110.89 36.308 1112.12 37.231 1113.2 38.462L1111.04 40.615C1110.27 39.692 1109.2 38.923 1107.97 38.308C1106.73 37.846 1105.35 37.538 1103.97 37.538C1102.12 37.538 1100.58 38 1099.04 38.769C1097.52 39.673 1096.25 40.942 1095.35 42.461C1094.43 44 1093.97 45.846 1093.97 47.846C1093.97 49.846 1094.43 51.692 1095.35 53.231C1096.25 54.75 1097.52 56.019 1099.04 56.923C1100.58 57.846 1102.27 58.153 1103.97 58.153C1105.66 58.153 1107.04 57.846 1108.27 57.385C1109.35 56.923 1110.43 56.154 1111.2 55.231C1111.81 54.615 1112.27 53.692 1112.73 52.769C1113.04 51.846 1113.35 50.769 1113.35 49.692H1103.97V46.923H1116.12C1116.27 47.538 1116.27 48.153 1116.27 48.769C1116.27 50.308 1115.97 51.846 1115.5 53.385C1115.07 54.843 1114.28 56.167 1113.2 57.231C1110.73 59.692 1107.66 61.077 1103.81 61.077C1101.66 61.231 1099.35 60.769 1097.35 59.538ZM1119.81 43.077H1122.73V46H1122.89C1123.2 45.077 1123.96 44.154 1124.89 43.539C1125.96 42.923 1126.89 42.615 1127.96 42.615C1128.73 42.615 1129.35 42.769 1129.96 42.923V46.153C1129.35 45.846 1128.43 45.693 1127.5 45.693C1126.73 45.693 1125.96 46 1125.2 46.462C1124.43 46.923 1123.96 47.538 1123.5 48.462C1123.04 49.231 1122.89 50.154 1122.89 51.077V60.923H1119.81V43.077ZM1134.73 60C1133.35 59.23 1132.27 58 1131.5 56.615C1130.73 55.231 1130.43 53.539 1130.43 51.846C1130.43 50.154 1130.73 48.462 1131.5 47.076C1132.27 45.692 1133.35 44.461 1134.73 43.692C1136.12 42.923 1137.66 42.462 1139.35 42.462C1141.04 42.462 1142.58 42.923 1143.96 43.692C1145.35 44.462 1146.43 45.692 1147.2 47.077C1147.96 48.461 1148.27 50.154 1148.27 51.847C1148.27 53.538 1147.96 55.231 1147.2 56.615C1146.43 58 1145.35 59.231 1143.96 60C1142.58 60.77 1141.04 61.23 1139.35 61.23C1137.66 61.23 1136.12 60.923 1134.73 60ZM1142.43 57.692C1143.35 57.077 1144.12 56.308 1144.58 55.385C1145.2 54.308 1145.35 53.231 1145.35 51.846C1145.35 50.462 1145.04 49.385 1144.58 48.308C1143.96 47.231 1143.35 46.462 1142.43 46C1141.5 45.385 1140.58 45.23 1139.5 45.23C1138.43 45.23 1137.5 45.539 1136.58 46C1135.66 46.615 1134.89 47.385 1134.43 48.308C1133.81 49.385 1133.66 50.462 1133.66 51.846C1133.66 53.231 1133.96 54.308 1134.43 55.385C1135.04 56.461 1135.66 57.231 1136.58 57.692C1137.5 58.308 1138.43 58.462 1139.5 58.462C1140.43 58.615 1141.5 58.308 1142.43 57.692ZM1152.89 59.385C1151.81 58.154 1151.2 56.462 1151.2 54.154V43.077H1154.27V53.692C1154.27 56.923 1155.66 58.615 1158.58 58.615C1159.5 58.615 1160.43 58.308 1161.2 57.846C1161.96 57.231 1162.58 56.616 1163.04 55.692C1163.5 54.769 1163.66 53.846 1163.66 52.923V43.231H1166.58V60.769H1163.81V58.154H1163.66C1163.2 59.077 1162.43 59.846 1161.35 60.462C1160.27 61.077 1159.2 61.385 1157.96 61.385C1155.66 61.231 1153.96 60.615 1152.89 59.385ZM1170.43 43.077H1173.35V45.692H1173.5C1174.13 44.737 1174.97 43.946 1175.96 43.385C1177.04 42.769 1178.27 42.461 1179.66 42.461C1181.2 42.461 1182.58 42.923 1183.81 43.692C1185.04 44.462 1186.12 45.692 1186.89 47.077C1187.66 48.461 1187.96 50.154 1187.96 51.847C1187.96 53.692 1187.66 55.231 1186.89 56.615C1186.12 58 1185.04 59.077 1183.81 60C1182.58 60.77 1181.2 61.23 1179.66 61.23C1178.27 61.23 1177.04 60.923 1175.96 60.308C1174.97 59.747 1174.13 58.955 1173.5 58H1173.35L1173.5 60.462V68.308H1170.43V43.077ZM1181.96 57.692C1182.89 57.077 1183.5 56.308 1184.12 55.385C1184.58 54.308 1184.89 53.231 1184.89 51.846C1184.89 50.462 1184.58 49.385 1184.12 48.308C1183.7 47.305 1182.94 46.486 1181.96 46C1181.04 45.385 1180.12 45.23 1179.04 45.23C1177.96 45.23 1177.04 45.539 1176.12 46C1175.2 46.462 1174.58 47.23 1173.96 48.308C1173.5 49.385 1173.2 50.462 1173.2 51.846C1173.2 53.231 1173.5 54.308 1173.96 55.385C1174.38 56.388 1175.15 57.206 1176.12 57.692C1177.04 58.154 1177.96 58.462 1179.04 58.462C1180.12 58.615 1181.2 58.308 1181.96 57.692ZM1192.27 59.846C1191.04 58.923 1190.12 57.692 1189.5 56.308L1192.12 55.077C1192.58 56.154 1193.2 57.077 1194.12 57.692C1195.04 58.308 1195.96 58.615 1196.89 58.615C1197.96 58.615 1198.89 58.308 1199.66 57.846C1200.43 57.385 1200.73 56.769 1200.73 56C1200.73 55.385 1200.43 54.77 1199.96 54.308C1199.35 53.846 1198.43 53.538 1197.04 53.077L1194.58 52.461C1193.2 52.154 1192.12 51.538 1191.2 50.769C1190.27 50 1189.81 48.923 1189.81 47.539C1189.81 46.461 1190.12 45.539 1190.73 44.769C1191.35 44 1192.12 43.385 1193.2 42.923C1194.27 42.461 1195.35 42.308 1196.58 42.308C1198.12 42.308 1199.5 42.615 1200.73 43.385C1201.96 44.154 1202.89 45.077 1203.35 46.308L1200.73 47.385C1200.43 46.461 1199.81 45.846 1199.04 45.538C1198.27 45.077 1197.35 44.923 1196.43 44.923C1195.5 44.923 1194.73 45.077 1193.96 45.539C1193.2 46 1192.89 46.615 1192.89 47.231C1192.89 47.846 1193.2 48.308 1193.66 48.615C1194.12 48.923 1194.89 49.231 1195.96 49.539L1198.58 50.154C1200.27 50.615 1201.66 51.231 1202.43 52.154C1203.35 53.077 1203.66 54.154 1203.66 55.384C1203.66 56.462 1203.35 57.384 1202.73 58.154C1202.12 58.923 1201.35 59.692 1200.27 60.154C1199.2 60.615 1197.96 60.924 1196.73 60.924C1195.2 61.231 1193.5 60.769 1192.27 59.846Z" fill="white"/>
<path d="M760.734 65.23C761.657 65.23 762.581 64.923 763.504 64.462L783.196 53.077L769.504 48L757.965 54.615C755.35 56.154 754.427 59.539 755.965 62.308C757.042 64.308 758.888 65.231 760.735 65.231L760.734 65.23Z" fill="white"/>
<path d="M780.427 54C782.427 54 784.273 52.923 785.196 51.23C786.734 48.615 785.811 45.077 783.196 43.539L763.504 32.154C760.888 30.615 757.35 31.538 755.811 34.154C754.273 36.769 755.196 40.308 757.811 41.846L777.504 53.231C778.427 53.692 779.504 54 780.427 54Z" fill="white"/>
</g>
</g>
</g>
</g>
<defs>
<linearGradient id="paint0_linear_1_3577" x1="0" y1="50" x2="1280" y2="50" gradientUnits="userSpaceOnUse">
<stop stop-opacity="0"/>
<stop offset="0.15"/>
<stop offset="0.85"/>
<stop offset="1" stop-opacity="0"/>
</linearGradient>
<clipPath id="clip0_1_3577">
<rect width="1280" height="100" fill="white"/>
</clipPath>
<clipPath id="clip1_1_3577">
<rect width="194" height="37" fill="white" transform="translate(93.35 31.5)"/>
</clipPath>
<clipPath id="clip2_1_3577">
<rect width="193" height="36" fill="white" transform="translate(38.35 31.5)"/>
</clipPath>
<clipPath id="clip3_1_3577">
<rect width="193" height="36" fill="white" transform="translate(38.35 31.5)"/>
</clipPath>
<clipPath id="clip4_1_3577">
<rect width="128" height="53" fill="white" transform="translate(367.35 23.5)"/>
</clipPath>
<clipPath id="clip5_1_3577">
<rect width="128" height="53" fill="white" transform="translate(312.35 23.5)"/>
</clipPath>
<clipPath id="clip6_1_3577">
<rect width="113.34" height="38" fill="white" transform="translate(575.35 31)"/>
</clipPath>
<clipPath id="clip7_1_3577">
<rect width="111" height="32" fill="white" transform="translate(522.35 34)"/>
</clipPath>
<clipPath id="clip8_1_3577">
<rect width="111" height="32" fill="white" transform="translate(522.35 34)"/>
</clipPath>
<clipPath id="clip9_1_3577">
<rect width="490" height="40" fill="white" transform="translate(768.69 30)"/>
</clipPath>
<clipPath id="clip10_1_3577">
<rect width="490" height="40" fill="white" transform="translate(715.35 30)"/>
</clipPath>
<clipPath id="clip11_1_3577">
<rect width="490" height="40" fill="white" transform="translate(715.35 30)"/>
</clipPath>
</defs>
</svg>
