<svg width="138" height="51" viewBox="0 0 138 51" fill="none" xmlns="http://www.w3.org/2000/svg">
<path d="M27.248 4.71374C27.388 4.58374 27.578 4.51074 27.777 4.51074C27.975 4.51074 28.165 4.58374 28.306 4.71374L50.77 25.5237C51.062 25.7927 51.062 26.2327 50.77 26.5017L28.306 47.3077C28.165 47.4377 27.975 47.5107 27.777 47.5107C27.578 47.5107 27.388 47.4377 27.248 47.3077L4.784 26.5007C4.492 26.2297 4.492 25.7927 4.784 25.5217L27.248 4.71374Z" stroke="white" stroke-width="4.37" stroke-miterlimit="10"/>
<path d="M26.912 38.9559L22.934 35.2709L26.889 31.6069L30.867 35.2919L26.912 38.9559Z" stroke="white" stroke-width="1.42" stroke-miterlimit="10"/>
<path d="M19.476 33.1527L26.383 26.7547L33.319 33.1787M11.503 24.5507L15.481 28.2357L19.436 24.5707L15.46 20.8867L11.503 24.5507Z" stroke="white" stroke-width="1.42" stroke-miterlimit="10"/>
<path d="M17.561 31.4419L24.468 25.0439L17.532 18.6199M26.736 11.0269L30.714 14.7109L26.757 18.3759L22.779 14.6909L26.734 11.0279L26.736 11.0269Z" stroke="white" stroke-width="1.42" stroke-miterlimit="10"/>
<path d="M33.06 16.7916L26.152 23.1896L19.217 16.7656M40.819 25.4346L36.841 21.7506L32.885 25.4146L36.862 29.0996L40.819 25.4346Z" stroke="white" stroke-width="1.42" stroke-miterlimit="10"/>
<path d="M36.03 18.3105L29.123 24.7085L36.058 31.1335" stroke="white" stroke-width="1.42" stroke-miterlimit="10"/>
<path d="M70.198 17.5975C67.695 17.5975 65.88 18.2475 64.755 19.5445C63.653 20.8205 63.102 22.5755 63.102 24.8085C63.102 25.8935 63.239 26.8825 63.515 27.7755C63.791 28.6475 64.204 29.4025 64.755 30.0415C65.306 30.6795 65.995 31.1785 66.822 31.5415C67.649 31.8805 68.613 32.0515 69.715 32.0515C70.313 32.0515 70.818 32.0405 71.231 32.0195C71.667 31.9975 72.046 31.9555 72.367 31.8915V24.2025H77.742V35.1455C77.099 35.3795 76.065 35.6245 74.641 35.8795C73.218 36.1565 71.461 36.2945 69.371 36.2945C67.58 36.2945 65.949 36.0395 64.48 35.5285C63.078 35.0455 61.808 34.2835 60.759 33.2955C59.726 32.3165 58.922 31.1155 58.348 29.6915C57.797 28.2645 57.521 26.6375 57.521 24.8085C57.521 22.9575 57.831 21.3205 58.451 19.8955C59.071 18.4695 59.921 17.2685 61 16.2905C62.075 15.2935 63.366 14.5205 64.79 14.0245C66.288 13.5095 67.876 13.2495 69.474 13.2585C70.6 13.2585 71.61 13.3335 72.506 13.4835C73.424 13.6095 74.205 13.7695 74.848 13.9605C75.514 14.1305 76.054 14.3115 76.467 14.5045C76.903 14.6945 77.213 14.8435 77.397 14.9495L75.847 18.9375C75.034 18.5475 74.18 18.2375 73.298 18.0125C72.294 17.7275 71.248 17.5885 70.198 17.5995V17.5975ZM88.493 32.5615C88.998 32.5615 89.48 32.5505 89.94 32.5295C90.309 32.5165 90.677 32.4855 91.042 32.4355V28.8285C90.734 28.7715 90.423 28.7295 90.111 28.7005C89.734 28.6605 89.355 28.6395 88.975 28.6375C88.493 28.6375 88.034 28.6695 87.597 28.7325C87.214 28.7675 86.841 28.8645 86.495 29.0205C86.174 29.1685 85.921 29.3715 85.737 29.6265C85.554 29.8815 85.462 30.2005 85.462 30.5835C85.462 31.3275 85.726 31.8495 86.253 32.1465C86.805 32.4235 87.551 32.5615 88.493 32.5615ZM88.226 18.6505C89.742 18.6505 91.005 18.8105 92.015 19.1295C93.026 19.4485 93.83 19.9055 94.427 20.5015C95.055 21.1095 95.505 21.8565 95.736 22.6705C95.988 23.5215 96.115 24.4685 96.115 25.5105V35.4015C95.38 35.5505 94.358 35.7205 93.049 35.9115C91.74 36.1245 90.155 36.2305 88.295 36.2305C87.124 36.2305 86.056 36.1365 85.092 35.9435C84.15 35.7525 83.335 35.4435 82.646 35.0185C81.965 34.5805 81.419 33.9875 81.061 33.2955C80.694 32.5935 80.51 31.7325 80.51 30.7115C80.51 29.7325 80.717 28.9035 81.13 28.2225C81.551 27.5565 82.142 26.9975 82.853 26.5955C83.606 26.1765 84.434 25.8845 85.298 25.7335C86.237 25.5405 87.195 25.4445 88.156 25.4465C88.823 25.4465 89.409 25.4785 89.914 25.5425C90.442 25.5845 90.867 25.6485 91.189 25.7335V25.2875C91.189 24.4785 90.925 23.8305 90.396 23.3405C89.868 22.8515 88.95 22.6085 87.641 22.6085C86.768 22.6085 85.906 22.6705 85.057 22.7985C84.306 22.8835 83.566 23.0435 82.853 23.2775L82.198 19.4485C82.497 19.3635 82.864 19.2785 83.3 19.1935C83.76 19.0865 84.253 19.0015 84.78 18.9375C85.31 18.8525 85.861 18.7885 86.435 18.7465C87.032 18.6825 87.629 18.6505 88.226 18.6505ZM100.006 14.9175L105.139 14.1525V19.0975H111.305V23.0535H105.138V28.9565C105.138 29.9555 105.321 30.7535 105.689 31.3495C106.079 31.9445 106.848 32.2425 107.997 32.2425C108.548 32.2425 109.11 32.1995 109.685 32.1145C110.236 32.0205 110.778 31.8825 111.304 31.7015L112.027 35.4015C111.407 35.6355 110.718 35.8385 109.96 36.0075C109.202 36.1775 108.272 36.2625 107.17 36.2625C105.769 36.2625 104.609 36.0925 103.691 35.7525C102.772 35.3905 102.037 34.9015 101.486 34.2845C100.935 33.6465 100.545 32.8805 100.315 31.9875C100.1 31.0115 99.996 30.0175 100.005 29.0215V14.9165L100.006 14.9175ZM113.548 27.6165C113.548 26.1275 113.791 24.8295 114.272 23.7235C114.777 22.5965 115.433 21.6605 116.236 20.9165C117.021 20.1845 117.958 19.6085 118.992 19.2265C120.022 18.8475 121.12 18.6525 122.229 18.6505C124.801 18.6505 126.833 19.3845 128.326 20.8525C129.819 22.2985 130.565 24.4365 130.565 27.2655C130.565 27.5415 130.554 27.8505 130.531 28.1905C130.508 28.5095 130.485 28.7965 130.462 29.0535H118.819C118.933 30.0305 119.427 30.8065 120.3 31.3815C121.172 31.9555 122.344 32.2435 123.813 32.2435C124.755 32.2435 125.674 32.1685 126.569 32.0195C127.488 31.8495 128.234 31.6465 128.808 31.4125L129.497 35.2735C129.142 35.4295 128.773 35.5575 128.395 35.6565C127.936 35.7845 127.419 35.8905 126.845 35.9755C126.294 36.0815 125.697 36.1665 125.054 36.2305C124.41 36.2945 123.767 36.3265 123.124 36.3265C121.494 36.3265 120.07 36.1035 118.853 35.6565C117.659 35.2095 116.66 34.6045 115.856 33.8375C115.067 33.0375 114.468 32.0915 114.099 31.0625C113.724 29.9465 113.538 28.7845 113.548 27.6165ZM125.453 25.7975C125.43 25.3955 125.349 24.9985 125.212 24.6175C125.101 24.2405 124.901 23.8925 124.626 23.5965C124.356 23.2865 124.015 23.0355 123.627 22.8635C123.237 22.6705 122.743 22.5755 122.147 22.5755C121.573 22.5755 121.078 22.6705 120.665 22.8625C120.268 23.0215 119.915 23.2615 119.631 23.5645C119.347 23.8765 119.125 24.2325 118.977 24.6175C118.839 25.0025 118.735 25.3975 118.667 25.7985L125.453 25.7975Z" fill="white"/>
</svg>
