<svg width="282" height="173" viewBox="0 0 282 173" fill="none" xmlns="http://www.w3.org/2000/svg">
<g clip-path="url(#clip0_1_3907)">
<path d="M94.134 169.862C116.351 169.862 134.362 151.851 134.362 129.634C134.362 107.417 116.351 89.406 94.134 89.406C71.9167 89.406 53.906 107.417 53.906 129.634C53.906 151.851 71.9167 169.862 94.134 169.862Z" fill="#131313" fill-opacity="0.89"/>
<mask id="mask0_1_3907" style="mask-type:luminance" maskUnits="userSpaceOnUse" x="77" y="114" width="34" height="32">
<path d="M77.61 114.193H110.118V145.033H77.61V114.193Z" fill="white"/>
</mask>
<g mask="url(#mask0_1_3907)">
<path d="M78.166 114.908L90.298 131.129L78.09 144.318H80.837L91.526 132.771L100.162 144.318H109.512L96.698 127.184L108.061 114.908H105.313L95.47 125.543L87.517 114.908H78.166ZM82.207 116.932H86.503L105.471 142.294H101.175L82.207 116.932Z" fill="white"/>
</g>
<path d="M187.865 170.332C210.082 170.332 228.093 152.321 228.093 130.104C228.093 107.887 210.082 89.876 187.865 89.876C165.648 89.876 147.637 107.887 147.637 130.104C147.637 152.321 165.648 170.332 187.865 170.332Z" fill="#131313" fill-opacity="0.89"/>
<mask id="mask1_1_3907" style="mask-type:luminance" maskUnits="userSpaceOnUse" x="169" y="111" width="38" height="39">
<path d="M169.443 111.756H206.827V149.14H169.443V111.756Z" fill="white"/>
</mask>
<g mask="url(#mask1_1_3907)">
<path d="M192.808 130.456C192.809 131.804 192.565 133.141 192.09 134.402C190.828 134.877 189.491 135.121 188.143 135.121H188.127C186.779 135.121 185.442 134.878 184.181 134.403C183.705 133.141 183.462 131.804 183.462 130.456V130.44C183.462 129.092 183.704 127.755 184.179 126.494C185.441 126.018 186.779 125.774 188.127 125.775H188.143C189.491 125.774 190.829 126.018 192.09 126.494C192.566 127.755 192.809 129.092 192.808 130.439V130.456ZM206.567 127.332H195.657L203.371 119.617C202.766 118.766 202.09 117.968 201.352 117.23V117.229C200.614 116.492 199.815 115.817 198.965 115.212L191.25 122.927V112.016C190.224 111.843 189.185 111.756 188.145 111.756H188.125C187.067 111.756 186.03 111.846 185.02 112.016V122.927L177.305 115.212C176.454 115.817 175.656 116.492 174.919 117.231L174.915 117.233C174.178 117.97 173.503 118.768 172.898 119.617L180.614 127.332H169.704C169.704 127.332 169.443 129.382 169.443 130.441V130.454C169.443 131.514 169.533 132.552 169.704 133.563H180.614L172.899 141.278C174.112 142.982 175.601 144.471 177.305 145.684L185.02 137.969V148.88C186.045 149.052 187.082 149.139 188.122 149.14H188.148C189.187 149.139 190.225 149.052 191.25 148.88V137.969L198.966 145.684C199.816 145.079 200.614 144.404 201.352 143.666L201.354 143.664C202.091 142.926 202.766 142.128 203.371 141.278L195.655 133.563H206.567C206.737 132.554 206.826 131.519 206.827 130.461V130.434C206.826 129.394 206.739 128.357 206.567 127.332Z" fill="#FF4A00"/>
</g>
<path d="M281.865 169.862C304.082 169.862 322.093 151.851 322.093 129.634C322.093 107.417 304.082 89.406 281.865 89.406C259.648 89.406 241.637 107.417 241.637 129.634C241.637 151.851 259.648 169.862 281.865 169.862Z" fill="#131313" fill-opacity="0.89"/>
<mask id="mask2_1_3907" style="mask-type:luminance" maskUnits="userSpaceOnUse" x="262" y="114" width="40" height="31">
<path d="M262.09 114.193H301.619V144.814H262.09V114.193Z" fill="white"/>
</mask>
<g mask="url(#mask2_1_3907)">
<mask id="mask3_1_3907" style="mask-type:luminance" maskUnits="userSpaceOnUse" x="262" y="114" width="40" height="31">
<path d="M301.617 114.194H262.088V144.816H301.617V114.194Z" fill="white"/>
</mask>
<g mask="url(#mask3_1_3907)">
<path d="M295.551 116.921C292.988 115.744 290.284 114.906 287.505 114.426C287.48 114.421 287.454 114.424 287.43 114.435C287.407 114.446 287.388 114.464 287.376 114.487C287.007 115.155 286.673 115.842 286.374 116.545C283.379 116.09 280.332 116.09 277.337 116.545C277.067 115.897 276.668 115.105 276.319 114.487C276.306 114.465 276.287 114.447 276.264 114.436C276.241 114.425 276.215 114.422 276.19 114.426C273.411 114.905 270.707 115.744 268.144 116.921C268.122 116.93 268.104 116.946 268.091 116.967C262.966 124.623 261.563 132.091 262.251 139.466C262.253 139.484 262.259 139.501 262.268 139.517C262.277 139.533 262.289 139.547 262.303 139.559C265.684 142.042 268.959 143.549 272.173 144.548C272.198 144.555 272.225 144.555 272.25 144.547C272.274 144.539 272.296 144.523 272.312 144.503C273.074 143.465 273.749 142.366 274.331 141.218C274.339 141.202 274.344 141.185 274.345 141.167C274.345 141.149 274.343 141.132 274.336 141.115C274.33 141.099 274.32 141.084 274.307 141.072C274.295 141.059 274.28 141.05 274.263 141.044C273.198 140.636 272.167 140.144 271.179 139.574C271.161 139.563 271.146 139.548 271.135 139.531C271.124 139.513 271.118 139.493 271.117 139.472C271.115 139.451 271.119 139.43 271.128 139.411C271.137 139.392 271.15 139.376 271.167 139.364C271.374 139.209 271.581 139.047 271.779 138.884C271.797 138.869 271.818 138.86 271.841 138.857C271.863 138.854 271.886 138.857 271.907 138.867C278.376 141.821 285.38 141.821 291.773 138.867C291.794 138.857 291.817 138.853 291.84 138.856C291.863 138.859 291.884 138.868 291.902 138.883C292.1 139.046 292.307 139.209 292.516 139.364C292.533 139.376 292.546 139.393 292.555 139.411C292.563 139.43 292.567 139.451 292.566 139.472C292.565 139.492 292.559 139.512 292.548 139.53C292.538 139.548 292.523 139.563 292.505 139.574C291.52 140.149 290.488 140.641 289.42 141.043C289.404 141.049 289.389 141.059 289.376 141.071C289.364 141.084 289.354 141.099 289.348 141.115C289.341 141.132 289.338 141.149 289.339 141.167C289.34 141.185 289.345 141.202 289.353 141.218C289.944 142.36 290.619 143.457 291.371 144.501C291.386 144.522 291.408 144.538 291.432 144.547C291.457 144.555 291.484 144.555 291.509 144.548C294.739 143.549 298.014 142.042 301.395 139.559C301.41 139.548 301.422 139.534 301.431 139.519C301.44 139.503 301.445 139.486 301.447 139.468C302.271 130.941 300.066 123.534 295.602 116.968C295.591 116.947 295.573 116.93 295.551 116.921ZM275.297 134.975C273.35 134.975 271.745 133.187 271.745 130.991C271.745 128.795 273.318 127.007 275.297 127.007C277.292 127.007 278.881 128.811 278.85 130.991C278.85 133.187 277.276 134.975 275.297 134.975ZM288.432 134.975C286.484 134.975 284.88 133.187 284.88 130.991C284.88 128.795 286.453 127.007 288.432 127.007C290.426 127.007 292.016 128.811 291.985 130.991C291.985 133.187 290.426 134.975 288.432 134.975Z" fill="#5865F2"/>
</g>
</g>
<path d="M41.443 81.406C63.6808 81.406 81.708 63.3787 81.708 41.141C81.708 18.9032 63.6808 0.875977 41.443 0.875977C19.2053 0.875977 1.17801 18.9032 1.17801 41.141C1.17801 63.3787 19.2053 81.406 41.443 81.406Z" fill="#131313" fill-opacity="0.89"/>
<mask id="mask4_1_3907" style="mask-type:luminance" maskUnits="userSpaceOnUse" x="30" y="23" width="23" height="35">
<path d="M30.055 23.5901H52.831V57.7561H30.055V23.5901Z" fill="white"/>
</mask>
<g mask="url(#mask4_1_3907)">
<path d="M41.432 40.6791C41.4325 39.1691 42.0328 37.7212 43.1008 36.6537C44.1688 35.5863 45.617 34.9868 47.127 34.9871C48.637 34.9868 50.0852 35.5863 51.1532 36.6537C52.2212 37.7212 52.8215 39.1691 52.822 40.6791C52.822 42.1895 52.222 43.638 51.154 44.706C50.086 45.7741 48.6374 46.3741 47.127 46.3741C45.6166 46.3741 44.1681 45.7741 43.1 44.706C42.032 43.638 41.432 42.1895 41.432 40.6791Z" fill="#1ABCFE"/>
<path d="M30.055 52.0489C30.0555 50.539 30.6558 49.091 31.7238 48.0236C32.7918 46.9562 34.24 46.3567 35.75 46.3569H41.445V52.0489C41.4442 53.5587 40.8438 55.0064 39.7758 56.0736C38.7079 57.1408 37.2598 57.7402 35.75 57.7399C35.0021 57.7411 34.2614 57.5948 33.5701 57.3092C32.8789 57.0237 32.2508 56.6046 31.7218 56.076C31.1928 55.5473 30.7733 54.9195 30.4872 54.2285C30.2012 53.5375 30.0543 52.7968 30.055 52.0489Z" fill="#0ACF83"/>
<path d="M41.432 23.618V34.988H47.127C48.6368 34.9882 50.0849 34.3889 51.1529 33.3217C52.2208 32.2545 52.8212 30.8068 52.822 29.297C52.8215 27.787 52.2212 26.3391 51.1532 25.2717C50.0852 24.2042 48.637 23.6047 47.127 23.605H41.432V23.618Z" fill="#FF7262"/>
<path d="M30.055 29.3099C30.0561 30.8195 30.6566 32.2669 31.7245 33.3339C32.7924 34.4009 34.2404 35.0002 35.75 34.9999H41.445V23.6189H35.75C35.002 23.6177 34.2612 23.7641 33.5699 24.0497C32.8786 24.3353 32.2505 24.7545 31.7214 25.2832C31.1924 25.812 30.7729 26.4399 30.487 27.131C30.201 27.8222 30.0542 28.5629 30.055 29.3109V29.3099Z" fill="#F24E1E"/>
<path d="M30.055 40.679C30.0561 42.1887 30.6566 43.6361 31.7245 44.7031C32.7924 45.7701 34.2404 46.3693 35.75 46.369H41.445V34.988H35.75C34.24 34.9878 32.7918 35.5873 31.7238 36.6547C30.6558 37.7221 30.0555 39.1691 30.055 40.679Z" fill="#A259FF"/>
</g>
<path d="M135.529 80.937C157.767 80.937 175.794 62.9097 175.794 40.672C175.794 18.4342 157.767 0.406982 135.529 0.406982C113.291 0.406982 95.264 18.4342 95.264 40.672C95.264 62.9097 113.291 80.937 135.529 80.937Z" fill="#131313" fill-opacity="0.89"/>
<path d="M120.154 23.5751L140.845 22.0471C143.387 21.8291 144.04 21.9761 145.638 23.1371L152.243 27.7911C153.332 28.5911 153.695 28.8091 153.695 29.6811V55.1991C153.695 56.7991 153.114 57.7441 151.081 57.8891L127.053 59.3441C125.528 59.4161 124.801 59.1981 124.002 58.1791L119.138 51.8551C118.266 50.6911 117.904 49.8191 117.904 48.8011V26.1181C117.904 24.8101 118.485 23.7201 120.154 23.5751Z" fill="white"/>
<path d="M140.387 23.6661L121.577 25.0631C120.059 25.1951 119.531 26.1911 119.531 27.3861V48.1091C119.531 49.0391 119.86 49.8361 120.653 50.8991L125.075 56.6781C125.801 57.6081 126.462 57.8081 127.849 57.7411L149.692 56.4121C151.539 56.2801 152.068 55.4161 152.068 53.9551V30.6401C152.068 29.8851 151.772 29.6671 150.898 29.0221L150.747 28.9131L144.744 24.6621C143.291 23.6011 142.697 23.4671 140.387 23.6661ZM128.343 30.2591C126.559 30.3791 126.154 30.4071 125.141 29.5791L122.566 27.5201C122.304 27.2541 122.436 26.9211 123.095 26.8551L141.178 25.5271C142.696 25.3941 143.487 25.9261 144.081 26.3901L147.182 28.6491C147.315 28.7161 147.645 29.1131 147.248 29.1131L128.574 30.2431L128.343 30.2591ZM126.263 53.7561V33.9641C126.263 33.0991 126.527 32.7001 127.318 32.6341L148.766 31.3721C149.494 31.3051 149.823 31.7701 149.823 32.6331V52.2931C149.823 53.1581 149.69 53.8891 148.502 53.9551L127.978 55.1511C126.79 55.2171 126.263 54.8191 126.263 53.7561ZM146.524 35.0251C146.655 35.6231 146.524 36.2211 145.929 36.2891L144.94 36.4861V51.0991C144.081 51.5631 143.29 51.8291 142.629 51.8291C141.573 51.8291 141.309 51.4961 140.518 50.5011L134.049 40.2721V50.1681L136.096 50.6341C136.096 50.6341 136.096 51.8301 134.445 51.8301L129.893 52.0951C129.76 51.8291 129.893 51.1651 130.354 51.0331L131.543 50.7011V37.6171L129.893 37.4821C129.76 36.8841 130.09 36.0221 131.015 35.9541L135.898 35.6241L142.629 45.9841V36.8181L140.914 36.6201C140.781 35.8881 141.309 35.3561 141.969 35.2911L146.524 35.0251Z" fill="black"/>
<path d="M229.074 80.937C251.312 80.937 269.339 62.9097 269.339 40.672C269.339 18.4342 251.312 0.406982 229.074 0.406982C206.836 0.406982 188.809 18.4342 188.809 40.672C188.809 62.9097 206.836 80.937 229.074 80.937Z" fill="#131313" fill-opacity="0.89"/>
<path fill-rule="evenodd" clip-rule="evenodd" d="M224.058 22.7749C223.577 22.775 223.101 22.8697 222.657 23.0537C222.213 23.2377 221.81 23.5073 221.47 23.8472C221.13 24.1872 220.861 24.5907 220.677 25.0347C220.493 25.4788 220.398 25.9548 220.398 26.4354C220.399 26.916 220.493 27.392 220.677 27.836C220.861 28.28 221.131 28.6835 221.471 29.0233C221.811 29.3631 222.214 29.6326 222.658 29.8165C223.102 30.0004 223.578 30.095 224.059 30.0949H227.72V26.4369C227.72 25.4658 227.334 24.5345 226.647 23.8478C225.96 23.1611 225.029 22.7752 224.058 22.7749C224.059 22.7749 224.059 22.7749 224.058 22.7749ZM224.058 32.5359H214.298C213.817 32.5358 213.341 32.6303 212.897 32.8142C212.453 32.998 212.049 33.2675 211.709 33.6073C211.369 33.9471 211.1 34.3506 210.915 34.7947C210.731 35.2387 210.637 35.7147 210.636 36.1954C210.636 36.6761 210.731 37.1521 210.915 37.5963C211.099 38.0405 211.368 38.4441 211.708 38.7841C212.048 39.1241 212.451 39.3938 212.895 39.5779C213.339 39.762 213.815 39.8568 214.296 39.8569H224.058C225.014 39.8346 225.923 39.4391 226.591 38.7552C227.259 38.0712 227.633 37.153 227.633 36.1969C227.633 35.2408 227.259 34.3226 226.591 33.6386C225.923 32.9547 225.014 32.5582 224.058 32.5359Z" fill="#36C5F0"/>
<path fill-rule="evenodd" clip-rule="evenodd" d="M247.24 36.1961C247.24 35.7154 247.145 35.2394 246.961 34.7952C246.777 34.3511 246.508 33.9476 246.168 33.6077C245.828 33.2679 245.424 32.9983 244.98 32.8144C244.536 32.6305 244.06 32.536 243.579 32.5361C243.098 32.536 242.622 32.6305 242.178 32.8144C241.734 32.9983 241.33 33.2679 240.99 33.6077C240.65 33.9476 240.381 34.3511 240.197 34.7952C240.013 35.2394 239.918 35.7154 239.918 36.1961V39.8571H243.579C244.06 39.8572 244.536 39.7627 244.98 39.5788C245.424 39.3949 245.828 39.1253 246.168 38.7855C246.508 38.4456 246.777 38.0421 246.961 37.598C247.145 37.1538 247.24 36.6768 247.24 36.1961ZM237.479 36.1961V26.4361C237.452 25.4834 237.054 24.5789 236.371 23.9147C235.687 23.2505 234.772 22.8789 233.819 22.8789C232.865 22.8789 231.95 23.2505 231.266 23.9147C230.583 24.5789 230.185 25.4834 230.158 26.4361V36.1961C230.158 37.1669 230.544 38.098 231.23 38.7845C231.917 39.4709 232.848 39.8566 233.819 39.8566C234.789 39.8566 235.72 39.4709 236.407 38.7845C237.093 38.098 237.479 37.1669 237.479 36.1961Z" fill="#2EB67D"/>
<path fill-rule="evenodd" clip-rule="evenodd" d="M233.819 59.3799C234.3 59.3799 234.776 59.2852 235.22 59.1013C235.664 58.9174 236.067 58.6478 236.407 58.3079C236.747 57.968 237.016 57.5646 237.2 57.1205C237.384 56.6765 237.479 56.2005 237.479 55.7199C237.479 55.2393 237.384 54.7633 237.2 54.3193C237.016 53.8752 236.747 53.4717 236.407 53.1319C236.067 52.792 235.664 52.5224 235.22 52.3385C234.776 52.1546 234.3 52.0599 233.819 52.0599H230.158V55.7199C230.159 56.6905 230.545 57.6211 231.231 58.3074C231.918 58.9936 232.848 59.3794 233.819 59.3799ZM233.819 49.6169H243.58C244.54 49.6013 245.456 49.2089 246.13 48.5243C246.804 47.8398 247.181 46.9179 247.182 45.9574C247.182 44.9969 246.805 44.0748 246.131 43.3899C245.458 42.7049 244.542 42.312 243.582 42.2959H233.821C233.34 42.2958 232.864 42.3903 232.42 42.5741C231.976 42.7579 231.573 43.0274 231.233 43.3672C230.893 43.7069 230.623 44.1104 230.439 44.5544C230.255 44.9984 230.16 45.4743 230.16 45.9549C230.16 46.4355 230.254 46.9115 230.438 47.3556C230.622 47.7997 230.892 48.2032 231.231 48.5432C231.571 48.8832 231.974 49.1529 232.418 49.3369C232.862 49.521 233.338 49.6168 233.819 49.6169Z" fill="#ECB22E"/>
<path fill-rule="evenodd" clip-rule="evenodd" d="M210.637 45.9581C210.637 46.9291 211.023 47.8602 211.709 48.5468C212.396 49.2334 213.327 49.6191 214.298 49.6191C215.269 49.6191 216.2 49.2334 216.887 48.5468C217.573 47.8602 217.959 46.9291 217.959 45.9581V42.2981H214.298C213.817 42.298 213.341 42.3925 212.897 42.5764C212.453 42.7603 212.049 43.0299 211.709 43.3697C211.369 43.7096 211.1 44.1131 210.916 44.5572C210.732 45.0014 210.637 45.4774 210.637 45.9581ZM220.398 45.9581V55.7181C220.398 56.6889 220.783 57.6201 221.469 58.3068C222.156 58.9934 223.087 59.3793 224.057 59.3796C225.028 59.3799 225.959 58.9945 226.646 58.3082C227.333 57.6219 227.719 56.6909 227.719 55.7201V45.9601C227.703 44.9997 227.311 44.084 226.626 43.4103C225.942 42.7366 225.02 42.3589 224.059 42.3586C223.099 42.3583 222.177 42.7355 221.492 43.4089C220.807 44.0822 220.414 44.9978 220.398 45.9581Z" fill="#E01E5A"/>
</g>
<defs>
<clipPath id="clip0_1_3907">
<rect width="282" height="172" fill="white"/>
</clipPath>
</defs>
</svg>
