<svg width="198" height="41" viewBox="0 0 198 41" fill="none" xmlns="http://www.w3.org/2000/svg">
<g clip-path="url(#clip0_1_4103)">
<path d="M29.186 37.82H22.858C22.586 37.822 22.319 37.745 22.09 37.597C21.582 37.229 21.564 36.62 22.01 36.167C22.949 35.212 23.898 34.267 24.844 33.319C26.048 32.111 27.254 30.907 28.461 29.705C28.935 29.237 29.396 29.217 29.884 29.681C30.732 30.493 31.558 31.329 32.389 32.159C33.667 33.435 34.942 34.714 36.214 35.995C36.39 36.157 36.529 36.353 36.621 36.573C36.88 37.316 36.196 37.836 35.675 37.836H29.186V37.82ZM67.457 37.235V10.876H72.175L72.321 13.687C72.966 12.653 73.874 11.809 74.954 11.242C76.051 10.633 77.258 10.329 78.574 10.329C79.842 10.329 81.012 10.584 82.085 11.095C83.157 11.607 84.096 12.325 84.9 13.249C85.705 14.15 86.327 15.209 86.765 16.426C87.229 17.642 87.46 18.969 87.46 20.405C87.46 21.865 87.229 23.216 86.765 24.457C86.302 25.698 85.656 26.794 84.827 27.743C84.008 28.66 83.014 29.405 81.902 29.933C80.78 30.444 79.574 30.7 78.282 30.7C77.087 30.7 76.002 30.469 75.027 30.006C74.068 29.532 73.229 28.845 72.577 27.998V37.235H67.457ZM77.367 26.1C78.294 26.1 79.123 25.857 79.854 25.37C80.585 24.883 81.158 24.226 81.573 23.398C82.012 22.547 82.231 21.585 82.231 20.514C82.231 19.443 82.012 18.494 81.573 17.667C81.158 16.815 80.585 16.146 79.854 15.659C79.123 15.172 78.294 14.929 77.367 14.929C76.441 14.929 75.612 15.172 74.881 15.659C74.149 16.146 73.564 16.815 73.125 17.667C72.711 18.494 72.504 19.443 72.504 20.514C72.504 21.585 72.711 22.547 73.125 23.398C73.564 24.226 74.149 24.883 74.881 25.37C75.612 25.857 76.441 26.1 77.367 26.1ZM99.516 30.7C97.761 30.7 96.225 30.335 94.909 29.605C93.616 28.85 92.605 27.791 91.873 26.428C91.166 25.041 90.813 23.411 90.813 21.537V10.876H95.932V21.646C95.932 23.033 96.262 24.129 96.92 24.932C97.578 25.71 98.468 26.1 99.589 26.1C100.711 26.1 101.601 25.71 102.259 24.932C102.917 24.129 103.246 23.033 103.246 21.646V10.876H108.366V21.537C108.366 22.924 108.158 24.177 107.744 25.297C107.33 26.416 106.732 27.378 105.952 28.181C105.172 28.984 104.233 29.605 103.136 30.043C102.064 30.481 100.857 30.7 99.516 30.7ZM119.402 30.7C118.037 30.7 116.793 30.481 115.672 30.043C114.575 29.605 113.636 28.984 112.856 28.181C112.1 27.378 111.576 26.428 111.284 25.333L115.891 24.348C116.135 25.102 116.574 25.698 117.208 26.136C117.841 26.574 118.597 26.794 119.475 26.794C120.304 26.794 120.986 26.611 121.523 26.246C122.059 25.881 122.327 25.382 122.327 24.749C122.327 24.214 122.083 23.776 121.596 23.435C121.133 23.07 120.353 22.79 119.255 22.595L118.232 22.413C116.135 22.048 114.538 21.366 113.441 20.368C112.368 19.37 111.832 18.105 111.832 16.572C111.832 15.355 112.149 14.284 112.783 13.359C113.417 12.41 114.294 11.667 115.416 11.132C116.537 10.597 117.829 10.329 119.292 10.329C120.584 10.329 121.754 10.548 122.803 10.986C123.875 11.4 124.765 11.996 125.472 12.775C126.179 13.554 126.667 14.491 126.935 15.586L122.364 16.535C122.12 15.805 121.718 15.233 121.157 14.819C120.621 14.405 119.987 14.199 119.255 14.199C118.5 14.199 117.878 14.381 117.39 14.746C116.903 15.111 116.659 15.574 116.659 16.133C116.659 16.62 116.891 17.034 117.354 17.375C117.841 17.691 118.658 17.947 119.804 18.141L120.828 18.324C122.9 18.689 124.485 19.383 125.582 20.405C126.679 21.403 127.227 22.68 127.227 24.238C127.227 25.187 127.032 26.051 126.642 26.83C126.277 27.609 125.74 28.29 125.033 28.874C124.326 29.459 123.497 29.909 122.547 30.225C121.596 30.542 120.548 30.7 119.402 30.7ZM130.416 30.152V2.91797H135.536V12.994C136.121 12.166 136.877 11.521 137.803 11.059C138.73 10.572 139.79 10.329 140.985 10.329C142.399 10.329 143.63 10.67 144.678 11.351C145.751 12.008 146.58 12.957 147.165 14.199C147.75 15.44 148.042 16.9 148.042 18.579V30.152H142.923V19.237C142.923 17.898 142.618 16.851 142.009 16.097C141.399 15.318 140.558 14.929 139.485 14.929C138.705 14.929 138.023 15.111 137.438 15.476C136.852 15.817 136.389 16.304 136.048 16.937C135.707 17.569 135.536 18.287 135.536 19.091V30.152H130.416ZM160.832 30.7C159.077 30.7 157.541 30.335 156.225 29.605C154.933 28.85 153.921 27.791 153.189 26.428C152.482 25.041 152.129 23.411 152.129 21.537V10.876H157.249V21.646C157.249 23.033 157.578 24.129 158.236 24.932C158.894 25.71 159.784 26.1 160.905 26.1C162.027 26.1 162.917 25.71 163.575 24.932C164.233 24.129 164.562 23.033 164.562 21.646V10.876H169.682V21.537C169.682 22.924 169.475 24.177 169.06 25.297C168.646 26.416 168.048 27.378 167.268 28.181C166.488 28.984 165.55 29.605 164.452 30.043C163.38 30.481 162.173 30.7 160.832 30.7ZM173.77 37.235V10.876H178.487L178.633 13.687C179.278 12.653 180.187 11.809 181.266 11.242C182.363 10.633 183.57 10.329 184.887 10.329C186.154 10.329 187.325 10.584 188.397 11.095C189.47 11.607 190.408 12.325 191.213 13.249C192.017 14.15 192.639 15.209 193.078 16.426C193.541 17.642 193.773 18.969 193.773 20.405C193.773 21.865 193.541 23.216 193.078 24.457C192.615 25.698 191.969 26.794 191.14 27.743C190.321 28.66 189.326 29.405 188.214 29.933C187.093 30.444 185.886 30.7 184.594 30.7C183.4 30.7 182.315 30.469 181.339 30.006C180.38 29.532 179.542 28.845 178.889 27.998V37.235H173.77ZM183.68 26.1C184.606 26.1 185.435 25.857 186.167 25.37C186.898 24.883 187.471 24.226 187.885 23.398C188.324 22.547 188.543 21.585 188.543 20.514C188.543 19.443 188.324 18.494 187.885 17.667C187.471 16.815 186.898 16.146 186.167 15.659C185.435 15.172 184.606 14.929 183.68 14.929C182.753 14.929 181.925 15.172 181.193 15.659C180.462 16.146 179.877 16.815 179.438 17.667C179.023 18.494 178.816 19.443 178.816 20.514C178.816 21.585 179.023 22.547 179.438 23.398C179.877 24.226 180.462 24.883 181.193 25.37C181.925 25.857 182.753 26.1 183.68 26.1Z" fill="white"/>
<path d="M28.566 18.3269C28.121 18.7999 27.675 19.2589 27.231 19.7039C25.237 21.6969 23.24 23.6929 21.24 25.6899L15.101 31.8239C13.683 33.2399 12.291 34.6849 10.837 36.0619C9.78798 37.0589 8.49499 37.3529 7.05199 37.1389C5.91399 36.9669 5.06099 36.3539 4.29099 35.5599C3.46999 34.7119 2.63799 33.8739 1.79699 33.0459C0.780985 32.0439 0.420985 30.8289 0.513985 29.4309C0.596985 28.2169 1.15599 27.2579 1.99099 26.4189C6.06699 22.3539 10.137 18.2869 14.202 14.2189C17.84 10.5779 21.472 6.93891 25.097 3.30091C25.617 2.73991 26.251 2.29691 26.956 2.00091C27.219 1.89091 27.494 1.81591 27.776 1.77791C28.562 1.65591 29.366 1.71591 30.125 1.95091C30.819 2.20391 31.45 2.60591 31.971 3.12891C35.385 6.53991 38.792 9.95191 42.19 13.3649C46.006 17.1919 49.821 21.0209 53.634 24.8519C54.283 25.5009 54.95 26.1319 55.558 26.8159C56.46 27.8169 56.861 29.1719 56.647 30.5009C56.505 31.5559 55.999 32.5269 55.216 33.2489C54.269 34.1749 53.361 35.1419 52.388 36.0389C51.31 37.0319 50.016 37.3549 48.562 37.1349C47.404 36.9559 46.558 36.3049 45.768 35.5089C43.094 32.8199 40.412 30.1389 37.723 27.4649L29.179 18.9209C28.991 18.7359 28.789 18.5569 28.566 18.3269Z" fill="white"/>
</g>
<defs>
<clipPath id="clip0_1_4103">
<rect width="197" height="40" fill="white" transform="translate(0.5 0.97998)"/>
</clipPath>
</defs>
</svg>
